<svg width="144" height="139" viewBox="0 0 144 139" fill="none" xmlns="http://www.w3.org/2000/svg">
<rect x="0.5" y="0.5" width="143" height="138" rx="10.5" fill="white" stroke="white"/>
<path d="M59.9426 52.5127C60.1841 54.4446 60.325 56.6986 60.3652 59.2745C60.4055 61.8102 60.3652 64.3861 60.2445 67.0023C60.164 69.5782 59.9828 72.0334 59.7011 74.3678C59.4194 76.662 59.0772 78.5135 58.6747 79.9222C58.393 80.7674 58.0509 81.6529 57.6484 82.5786C57.2862 83.4641 56.8837 84.2691 56.4409 84.9935C55.797 86.0803 55.0121 87.0462 54.0864 87.8915C53.1607 88.6964 52.1343 89.4008 51.0073 90.0045C49.9206 90.568 48.7534 91.0107 47.5057 91.3327C46.2982 91.6547 45.0908 91.8358 43.8833 91.8761C41.7501 91.9566 39.7175 91.6547 37.7856 90.9705C35.8939 90.246 34.1431 89.119 32.5331 87.5896C31.3257 86.4224 30.3597 85.1747 29.6352 83.8464C28.9107 82.5182 28.3472 81.1296 27.9447 79.6807C27.5423 78.1915 27.2806 76.662 27.1599 75.0923C27.0794 73.5226 27.0391 71.9127 27.0391 70.2625C27.0391 69.4977 27.019 68.5519 26.9788 67.4249C26.9788 66.2577 26.9788 65.0703 26.9788 63.8629C26.9788 62.6152 26.9788 61.4077 26.9788 60.2405C26.9788 59.0733 26.9989 58.0872 27.0391 57.2822C27.0391 56.759 27.0391 56.1955 27.0391 55.5917C27.0391 54.9478 27.0593 54.3239 27.0995 53.7202C27.18 53.0762 27.3008 52.4725 27.4618 51.909C27.6228 51.3052 27.8642 50.7619 28.1862 50.2789C28.5485 49.7557 29.0516 49.3733 29.6956 49.1318C30.3396 48.8903 31.0037 48.7696 31.6879 48.7696C32.4124 48.7696 33.0966 48.9104 33.7406 49.1922C34.3846 49.4739 34.9078 49.8764 35.3103 50.3996C35.5115 50.7216 35.6524 51.0436 35.7329 51.3656C35.8134 51.6876 35.8738 52.0498 35.914 52.4523C35.9945 53.7805 36.0348 55.2899 36.0348 56.9803C36.075 58.6708 36.075 60.321 36.0348 61.9309C36.0348 63.5006 36.0146 64.9496 35.9744 66.2778C35.9341 67.606 35.914 68.5921 35.914 69.2361C35.914 71.651 36.0348 73.8446 36.2763 75.8168C36.5178 77.7487 37.0812 79.3587 37.9667 80.6467C38.7717 81.8139 39.7175 82.5585 40.8043 82.8805C41.891 83.2025 42.9777 83.3031 44.0644 83.1823C45.0706 83.0616 46.0769 82.6993 47.0831 82.0956C48.1296 81.4516 48.9547 80.5259 49.5584 79.3184C49.7999 78.8757 50.0011 78.3726 50.1621 77.8091C50.3231 77.2456 50.4439 76.7224 50.5244 76.2394C50.6854 74.71 50.8262 72.939 50.947 70.9266C51.0677 68.8739 51.1683 66.7809 51.2488 64.6477C51.3293 62.5145 51.3696 60.4216 51.3696 58.3689C51.3696 56.3162 51.3495 54.4648 51.3092 52.8146C51.3897 52.0901 51.6111 51.426 51.9733 50.8223C52.2953 50.299 52.7582 49.8362 53.3619 49.4337C53.9656 49.0312 54.7907 48.8299 55.8372 48.8299C56.6824 48.8702 57.3667 49.0916 57.8899 49.494C58.4131 49.8563 58.8357 50.2588 59.1577 50.7015C59.52 51.2247 59.7816 51.8285 59.9426 52.5127Z" fill="url(#paint0_linear_19_1098)"/>
<path d="M64.7042 52.0516C64.7042 51.7905 64.7695 51.5511 64.9 51.3335C65.0306 51.1015 65.2119 50.9056 65.444 50.7461C65.6761 50.572 65.9445 50.4342 66.2491 50.3327C66.5682 50.2311 66.9018 50.1803 67.25 50.1803C67.9317 50.1803 68.4322 50.2891 68.7513 50.5067C69.0704 50.7243 69.2662 51.0652 69.3388 51.5294C69.5854 53.4586 69.7884 55.2863 69.948 57.0125C70.1221 58.7242 70.2599 60.3633 70.3614 61.9299C70.4629 63.482 70.5355 64.9761 70.579 66.4121C70.6225 67.8337 70.6443 69.2117 70.6443 70.5462C70.6443 71.2715 70.3832 71.8155 69.861 72.1781C69.3533 72.5407 68.6062 72.7221 67.6198 72.7221C67.1702 72.7221 66.8148 72.6133 66.5537 72.3957C66.3071 72.1926 66.1838 71.888 66.1838 71.4818C66.1838 68.9869 66.104 66.6515 65.9445 64.4756C65.7994 62.2853 65.6326 60.3415 65.444 58.6444C65.2554 56.9472 65.0814 55.5329 64.9218 54.4015C64.7767 53.2555 64.7042 52.4722 64.7042 52.0516ZM81.654 71.9388C81.3349 72.7076 80.849 73.092 80.1962 73.092C79.9351 73.092 79.6377 73.0194 79.3041 72.8744L78.7166 72.5915C78.0059 72.2434 77.6505 71.7574 77.6505 71.1337C77.6505 70.8146 77.7085 70.5172 77.8245 70.2416C78.2742 69.1827 78.7602 68.0875 79.2824 66.9561C79.8046 65.8101 80.3558 64.6424 80.936 63.453C80.9795 63.3369 81.023 63.2281 81.0666 63.1266C81.1101 63.0251 81.1318 62.9308 81.1318 62.8437C81.1318 62.4956 80.9505 62.1837 80.5879 61.9081C79.3694 60.9943 78.1582 60.0804 76.9542 59.1666C75.7648 58.2382 74.5535 57.3244 73.3206 56.425C72.7838 56.0479 72.5155 55.6127 72.5155 55.1195C72.5155 54.9164 72.5518 54.7206 72.6243 54.532C72.6968 54.329 72.8274 54.1259 73.0159 53.9228L73.6252 53.2048C74.0458 52.7116 74.51 52.465 75.0177 52.465C75.1918 52.465 75.3658 52.5085 75.5399 52.5955C75.7285 52.6681 75.9243 52.7696 76.1274 52.9001C77.2008 53.6835 78.2597 54.4668 79.3041 55.2501C80.363 56.0189 81.4147 56.8094 82.4591 57.6217C82.5896 57.7088 82.7129 57.7813 82.829 57.8393C82.945 57.8973 83.0611 57.9263 83.1771 57.9263C83.4962 57.9263 83.7791 57.7233 84.0257 57.3171C84.722 55.9681 85.44 54.6336 86.1798 53.3136C86.9196 51.9935 87.6811 50.6953 88.4644 49.4188C88.8561 48.8241 89.3202 48.5267 89.857 48.5267C90.1616 48.5267 90.517 48.65 90.9231 48.8966L91.2712 49.1142C91.866 49.5058 92.1633 49.9628 92.1633 50.485C92.1633 50.6735 92.1343 50.8621 92.0763 51.0507C92.0183 51.2248 91.9313 51.4133 91.8152 51.6164C90.9594 52.9799 90.1471 54.358 89.3783 55.7505C88.6095 57.143 87.8624 58.5573 87.1371 59.9934C87.0936 60.1094 87.0501 60.211 87.0066 60.298C86.9776 60.385 86.9631 60.4721 86.9631 60.5591C86.9631 60.9218 87.1371 61.2336 87.4853 61.4947C89.1679 62.8002 90.8361 64.113 92.4897 65.433C94.1434 66.7385 95.8043 68.0295 97.4724 69.306C97.9801 69.6976 98.2339 70.1256 98.2339 70.5897C98.2339 71.0249 98.0091 71.4383 97.5594 71.83L96.7979 72.5045C96.3772 72.8961 95.9493 73.092 95.5141 73.092C95.1225 73.092 94.7236 72.9251 94.3174 72.5915L85.7011 65.8682C85.5705 65.7811 85.4472 65.7086 85.3312 65.6506C85.2297 65.5926 85.1209 65.5635 85.0048 65.5635C84.6567 65.5635 84.3738 65.7811 84.1562 66.2163L81.654 71.9388Z" fill="#B6158A"/>
<path d="M77.8932 87.8927C78.105 88.3651 78.1131 88.8294 77.9176 89.2856C77.7221 89.7254 77.4126 90.1327 76.989 90.5074C76.5654 90.8821 76.0767 91.2079 75.5228 91.4849C74.9852 91.7618 74.472 91.9573 73.9833 92.0714C73.4457 92.1854 72.8755 92.2343 72.2727 92.218C71.6862 92.218 71.0916 92.1447 70.4888 91.998C69.9023 91.8677 69.324 91.6722 68.7538 91.4116C68.1999 91.1346 67.6867 90.8006 67.2143 90.4097C66.6441 89.9372 66.1961 89.3752 65.8703 88.7235C65.5607 88.0556 65.3327 87.3469 65.186 86.5975C65.0394 85.8481 64.958 85.0987 64.9417 84.3493C64.9417 83.5836 64.9661 82.8668 65.015 82.1989C65.0639 81.5961 65.186 80.9689 65.3815 80.3173C65.577 79.6656 65.8458 79.0302 66.1879 78.4112C66.5464 77.7758 66.9699 77.1893 67.4587 76.6517C67.9637 76.1141 68.5502 75.658 69.2181 75.2833C69.7231 74.99 70.2852 74.7945 70.9042 74.6968C71.5396 74.5827 72.175 74.5583 72.8103 74.6235C73.462 74.6723 74.0729 74.8108 74.6431 75.0389C75.2296 75.2507 75.7264 75.5439 76.1337 75.9186C76.3944 76.1467 76.6632 76.4644 76.9401 76.8717C77.2334 77.2789 77.4452 77.6944 77.5755 78.1179C77.7058 78.5415 77.7058 78.9406 77.5755 79.3153C77.4615 79.6737 77.1356 79.9181 76.598 80.0484C76.3699 80.1136 76.1663 80.1299 75.9871 80.0973C75.8079 80.0484 75.645 79.9751 75.4984 79.8774C75.3517 79.7634 75.2133 79.633 75.0829 79.4864C74.9526 79.3398 74.8304 79.1932 74.7164 79.0465C74.3254 78.5741 73.8692 78.2564 73.3479 78.0935C72.8266 77.9143 72.3053 77.8736 71.784 77.9713C71.2789 78.0528 70.7984 78.2646 70.3422 78.6067C69.9023 78.9325 69.5602 79.3561 69.3159 79.8774C69.0552 80.4313 68.8434 81.0422 68.6805 81.7102C68.5339 82.3618 68.4524 83.0297 68.4361 83.714C68.4198 84.3819 68.4769 85.0336 68.6072 85.6689C68.7538 86.3043 68.9982 86.8663 69.3403 87.3551C69.601 87.746 69.9186 88.0637 70.2933 88.3081C70.6843 88.5525 71.0997 88.7235 71.5396 88.8213C71.9795 88.919 72.4193 88.9353 72.8592 88.8701C73.3153 88.805 73.7552 88.6583 74.1788 88.4303C74.3091 88.3651 74.4476 88.2755 74.5942 88.1615C74.7571 88.0311 74.92 87.9008 75.0829 87.7705C75.2459 87.6401 75.4088 87.518 75.5717 87.4039C75.7509 87.2899 75.9382 87.2084 76.1337 87.1596C76.427 87.0618 76.7446 87.07 77.0868 87.184C77.4452 87.298 77.714 87.5343 77.8932 87.8927ZM83.2733 90.0431C83.257 90.1246 83.2407 90.206 83.2244 90.2875C83.2244 90.3526 83.2244 90.4259 83.2244 90.5074L83.0778 91.0206C83.0452 91.0857 83.0208 91.1265 83.0045 91.1428L82.9312 91.2894C82.8497 91.4686 82.7031 91.6152 82.4913 91.7292C82.1003 91.9247 81.6849 91.9736 81.245 91.8759C80.9681 91.8433 80.7481 91.7618 80.5852 91.6315C80.4223 91.5175 80.3083 91.379 80.2431 91.2161C80.178 91.0532 80.1291 90.8902 80.0965 90.7273C80.0476 90.5644 80.0232 90.4178 80.0232 90.2875V76.6029C80.0232 76.4888 80.0232 76.3911 80.0232 76.3096C80.0395 76.2119 80.0558 76.1223 80.0721 76.0408C80.0884 75.9268 80.1046 75.829 80.1209 75.7476C80.1535 75.6661 80.1861 75.5765 80.2187 75.4788C80.2676 75.3159 80.3572 75.1855 80.4875 75.0878C80.683 74.9412 80.8703 74.8597 81.0495 74.8434C81.1636 74.8108 81.2695 74.7945 81.3672 74.7945C81.465 74.7782 81.579 74.7701 81.7093 74.7701C81.9374 74.7701 82.1981 74.8353 82.4913 74.9656C82.7194 75.0959 82.8823 75.2751 82.98 75.5032C83.143 75.829 83.2244 76.1304 83.2244 76.4074C83.2407 76.5703 83.2488 76.8146 83.2488 77.1405C83.2651 77.4663 83.2733 77.7107 83.2733 77.8736V77.9713C83.3059 78.4926 83.3222 78.9977 83.3222 79.4864C83.3222 79.9588 83.314 80.4802 83.2977 81.0504C83.2977 81.6043 83.2896 82.1419 83.2733 82.6632C83.2733 83.1682 83.2733 83.6732 83.2733 84.1783V89.31C83.2733 89.3752 83.2733 89.4403 83.2733 89.5055C83.2896 89.5544 83.2977 89.6114 83.2977 89.6765C83.2977 89.8395 83.2896 89.9616 83.2733 90.0431ZM88.1324 81.7102C88.6211 81.4658 89.1343 81.2947 89.6719 81.197C90.2095 81.0829 90.739 81.0585 91.2603 81.1237C91.7979 81.1725 92.3111 81.311 92.7998 81.5391C93.2886 81.7509 93.7447 82.0604 94.1683 82.4677C94.5919 82.8913 94.9177 83.3556 95.1458 83.8606C95.3738 84.3656 95.5367 84.9277 95.6345 85.5467C95.6997 85.9703 95.8055 86.3613 95.9522 86.7197C96.0988 87.0781 96.2536 87.4365 96.4165 87.7949C96.5957 88.1533 96.7586 88.5117 96.9052 88.8701C97.0681 89.2285 97.1984 89.6032 97.2962 89.9942C97.3776 90.3689 97.3451 90.7355 97.1984 91.0939C97.0681 91.436 96.7912 91.6478 96.3676 91.7292C96.1232 91.7781 95.887 91.7618 95.6589 91.6804C95.4471 91.5826 95.2516 91.4523 95.0724 91.2894C94.8932 91.1102 94.7303 90.9228 94.5837 90.7273C94.4534 90.5155 94.3312 90.3201 94.2172 90.1408C93.8425 90.6296 93.4352 91.0124 92.9953 91.2894C92.5555 91.55 92.026 91.7211 91.4069 91.8026C90.8856 91.8677 90.3887 91.884 89.9163 91.8514C89.4438 91.8188 88.9388 91.7292 88.4012 91.5826C87.7007 91.4034 87.1223 91.0939 86.6662 90.654C86.2263 90.1979 85.8842 89.6766 85.6398 89.0901C85.4118 88.4873 85.2896 87.8438 85.2733 87.1596C85.257 86.4753 85.3384 85.7992 85.5177 85.1313C85.7457 84.2516 86.0878 83.5348 86.544 82.9809C87.0002 82.427 87.5296 82.0034 88.1324 81.7102ZM88.7433 84.5693C88.5152 84.7973 88.336 85.0661 88.2057 85.3757C88.0754 85.6852 87.9939 86.011 87.9613 86.3531C87.945 86.6953 87.9776 87.0374 88.0591 87.3795C88.1405 87.7216 88.2709 88.023 88.4501 88.2837C88.613 88.5117 88.8899 88.7072 89.2809 88.8701C89.6719 89.0168 90.0792 89.1064 90.5028 89.1389C90.9915 89.1715 91.4151 89.0412 91.7735 88.748C92.1482 88.4547 92.4251 88.0882 92.6043 87.6483C92.7998 87.1921 92.8894 86.7116 92.8731 86.2065C92.8568 85.6852 92.7184 85.2128 92.4577 84.7892C92.2622 84.4797 92.0016 84.2516 91.6757 84.105C91.3662 83.9583 91.0322 83.885 90.6738 83.885C90.3154 83.8687 89.957 83.9258 89.5986 84.0561C89.2565 84.1701 88.9714 84.3412 88.7433 84.5693ZM105.17 87.6972C104.86 87.5017 104.51 87.3469 104.119 87.2329C103.744 87.1188 103.353 87.0129 102.946 86.9152C102.555 86.8174 102.172 86.7116 101.797 86.5975C101.423 86.4672 101.081 86.288 100.771 86.0599C100.103 85.5549 99.7121 84.9358 99.598 84.2027C99.5003 83.4533 99.6632 82.7039 100.087 81.9545C100.315 81.5635 100.616 81.2459 100.991 81.0015C101.366 80.7408 101.773 80.5453 102.213 80.415C102.669 80.2684 103.133 80.1869 103.606 80.1706C104.078 80.1543 104.526 80.1788 104.95 80.2439C105.227 80.2928 105.52 80.3661 105.829 80.4639C106.139 80.5453 106.424 80.6594 106.685 80.806C106.962 80.9526 107.206 81.14 107.418 81.368C107.646 81.5798 107.809 81.8486 107.907 82.1744C107.972 82.3862 107.98 82.5899 107.931 82.7854C107.898 82.9809 107.817 83.1438 107.687 83.2741C107.573 83.4044 107.418 83.5022 107.222 83.5673C107.043 83.6325 106.848 83.6488 106.636 83.6162C106.391 83.5673 106.163 83.494 105.952 83.3963C105.74 83.2985 105.528 83.1927 105.316 83.0786C105.104 82.9646 104.885 82.8668 104.656 82.7854C104.445 82.7039 104.217 82.6632 103.972 82.6632C103.598 82.6469 103.288 82.7121 103.044 82.8587C102.799 83.0053 102.628 83.1845 102.53 83.3963C102.449 83.6081 102.457 83.8362 102.555 84.0805C102.669 84.3249 102.897 84.5367 103.239 84.7159C103.549 84.8788 103.891 85.0091 104.265 85.1069C104.64 85.2046 105.007 85.3024 105.365 85.4001C105.74 85.4979 106.098 85.6119 106.44 85.7422C106.799 85.8726 107.116 86.0518 107.393 86.2798C107.931 86.7197 108.257 87.2329 108.371 87.8194C108.501 88.4058 108.469 88.9842 108.273 89.5544C108.078 90.1246 107.735 90.6296 107.247 91.0694C106.774 91.5093 106.212 91.8026 105.561 91.9492C105.088 92.0469 104.575 92.0958 104.021 92.0958C103.483 92.0958 102.946 92.0388 102.408 91.9247C101.887 91.8107 101.382 91.6315 100.893 91.3871C100.421 91.1428 100.022 90.8332 99.6958 90.4585C99.4677 90.1979 99.3455 89.9046 99.3292 89.5788C99.3292 89.2367 99.3944 88.9434 99.5247 88.6991C99.6713 88.4384 99.875 88.2592 100.136 88.1615C100.396 88.0637 100.69 88.1207 101.015 88.3325C101.276 88.5117 101.586 88.6909 101.944 88.8701C102.302 89.033 102.661 89.1634 103.019 89.2611C103.378 89.3589 103.72 89.4077 104.046 89.4077C104.388 89.4077 104.681 89.3344 104.925 89.1878C105.284 88.9597 105.471 88.6991 105.487 88.4058C105.504 88.0963 105.398 87.8601 105.17 87.6972ZM116.266 87.6972C115.957 87.5017 115.607 87.3469 115.216 87.2329C114.841 87.1188 114.45 87.0129 114.043 86.9152C113.652 86.8174 113.269 86.7116 112.894 86.5975C112.519 86.4672 112.177 86.288 111.868 86.0599C111.2 85.5549 110.809 84.9358 110.695 84.2027C110.597 83.4533 110.76 82.7039 111.184 81.9545C111.412 81.5635 111.713 81.2459 112.088 81.0015C112.462 80.7408 112.87 80.5453 113.31 80.415C113.766 80.2684 114.23 80.1869 114.702 80.1706C115.175 80.1543 115.623 80.1788 116.046 80.2439C116.323 80.2928 116.617 80.3661 116.926 80.4639C117.236 80.5453 117.521 80.6594 117.781 80.806C118.058 80.9526 118.303 81.14 118.515 81.368C118.743 81.5798 118.906 81.8486 119.003 82.1744C119.068 82.3862 119.077 82.5899 119.028 82.7854C118.995 82.9809 118.914 83.1438 118.783 83.2741C118.669 83.4044 118.515 83.5022 118.319 83.5673C118.14 83.6325 117.944 83.6488 117.733 83.6162C117.488 83.5673 117.26 83.494 117.048 83.3963C116.837 83.2985 116.625 83.1927 116.413 83.0786C116.201 82.9646 115.981 82.8668 115.753 82.7854C115.541 82.7039 115.313 82.6632 115.069 82.6632C114.694 82.6469 114.385 82.7121 114.14 82.8587C113.896 83.0053 113.725 83.1845 113.627 83.3963C113.546 83.6081 113.554 83.8362 113.652 84.0805C113.766 84.3249 113.994 84.5367 114.336 84.7159C114.645 84.8788 114.988 85.0091 115.362 85.1069C115.737 85.2046 116.103 85.3024 116.462 85.4001C116.837 85.4979 117.195 85.6119 117.537 85.7422C117.896 85.8726 118.213 86.0518 118.49 86.2798C119.028 86.7197 119.354 87.2329 119.468 87.8194C119.598 88.4058 119.565 88.9842 119.37 89.5544C119.174 90.1246 118.832 90.6296 118.344 91.0694C117.871 91.5093 117.309 91.8026 116.657 91.9492C116.185 92.0469 115.672 92.0958 115.118 92.0958C114.58 92.0958 114.043 92.0388 113.505 91.9247C112.984 91.8107 112.479 91.6315 111.99 91.3871C111.518 91.1428 111.118 90.8332 110.793 90.4585C110.564 90.1979 110.442 89.9046 110.426 89.5788C110.426 89.2367 110.491 88.9434 110.622 88.6991C110.768 88.4384 110.972 88.2592 111.232 88.1615C111.493 88.0637 111.786 88.1207 112.112 88.3325C112.373 88.5117 112.682 88.6909 113.041 88.8701C113.399 89.033 113.758 89.1634 114.116 89.2611C114.474 89.3589 114.816 89.4077 115.142 89.4077C115.484 89.4077 115.778 89.3344 116.022 89.1878C116.38 88.9597 116.568 88.6991 116.584 88.4058C116.6 88.0963 116.494 87.8601 116.266 87.6972Z" fill="#4E0189"/>
<defs>
<linearGradient id="paint0_linear_19_1098" x1="71.2813" y1="35.9365" x2="71.2813" y2="113.559" gradientUnits="userSpaceOnUse">
<stop stop-color="#200177"/>
<stop offset="1" stop-color="#010031"/>
</linearGradient>
</defs>
</svg>
